{
  "accessors": [
    {
      "bufferView": 2,
      "componentType": 5126,
      "count": 5034,
      "max": [
        47.70698165893555,
        -0.1645052433013916,
        135.95559692382813
      ],
      "min": [
        -49.709163665771484,
        -20.40658187866211,
        0.42327117919921875
      ],
      "type": "VEC3"
    },
    {
      "bufferView": 2,
      "byteOffset": 60408,
      "componentType": 5126,
      "count": 5034,
      "type": "VEC3"
    },
    {
      "bufferView": 1,
      "componentType": 5126,
      "count": 5034,
      "type": "VEC2"
    },
    {
      "bufferView": 1,
      "byteOffset": 40272,
      "componentType": 5126,
      "count": 5034,
      "type": "VEC2"
    },
    {
      "bufferView": 1,
      "byteOffset": 80544,
      "componentType": 5126,
      "count": 5034,
      "type": "VEC2"
    },
    {
      "bufferView": 0,
      "componentType": 5125,
      "count": 25440,
      "type": "SCALAR"
    },
    {
      "bufferView": 2,
      "byteOffset": 120816,
      "componentType": 5126,
      "count": 5034,
      "max": [
        47.70698165893555,
        -0.1645052433013916,
        135.95559692382813
      ],
      "min": [
        -49.709163665771484,
        -20.40658187866211,
        0.42327117919921875
      ],
      "type": "VEC3"
    },
    {
      "bufferView": 2,
      "byteOffset": 181224,
      "componentType": 5126,
      "count": 5034,
      "type": "VEC3"
    },
    {
      "bufferView": 1,
      "byteOffset": 120816,
      "componentType": 5126,
      "count": 5034,
      "type": "VEC2"
    },
    {
      "bufferView": 1,
      "byteOffset": 161088,
      "componentType": 5126,
      "count": 5034,
      "type": "VEC2"
    },
    {
      "bufferView": 1,
      "byteOffset": 201360,
      "componentType": 5126,
      "count": 5034,
      "type": "VEC2"
    },
    {
      "bufferView": 0,
      "byteOffset": 101760,
      "componentType": 5125,
      "count": 25440,
      "type": "SCALAR"
    }
  ],
  "asset": {
    "generator": "fab-model-conversion",
    "version": "2.0"
  },
  "bufferViews": [
    {
      "buffer": 0,
      "byteLength": 203520,
      "target": 34963
    },
    {
      "buffer": 0,
      "byteLength": 241632,
      "byteOffset": 203520,
      "byteStride": 8,
      "target": 34962
    },
    {
      "buffer": 0,
      "byteLength": 241632,
      "byteOffset": 445152,
      "byteStride": 12,
      "target": 34962
    }
  ],
  "buffers": [
    {
      "byteLength": 686784,
      "uri": "scene.bin"
    }
  ],
  "images": [
    {
      "uri": "textures/gingerbreadman_baseColor.png"
    },
    {
      "uri": "textures/gingerbreadman_metallicRoughness.png"
    }
  ],
  "materials": [
    {
      "doubleSided": true,
      "name": "gingerbreadman",
      "pbrMetallicRoughness": {
        "baseColorTexture": {
          "index": 0
        },
        "metallicRoughnessTexture": {
          "index": 1
        }
      }
    }
  ],
  "meshes": [
    {
      "name": "gingerbreadman000_gingerbreadman_0",
      "primitives": [
        {
          "attributes": {
            "NORMAL": 1,
            "POSITION": 0,
            "TEXCOORD_0": 2,
            "TEXCOORD_1": 3,
            "TEXCOORD_2": 4
          },
          "indices": 5,
          "material": 0,
          "mode": 4
        }
      ]
    },
    {
      "name": "gingerbreadman001_gingerbreadman_0",
      "primitives": [
        {
          "attributes": {
            "NORMAL": 7,
            "POSITION": 6,
            "TEXCOORD_0": 8,
            "TEXCOORD_1": 9,
            "TEXCOORD_2": 10
          },
          "indices": 11,
          "material": 0,
          "mode": 4
        }
      ]
    }
  ],
  "nodes": [
    {
      "children": [
        1
      ],
      "matrix": [
        1.0,
        0.0,
        0.0,
        0.0,
        0.0,
        2.220446049250313e-16,
        -1.0,
        0.0,
        0.0,
        1.0,
        2.220446049250313e-16,
        0.0,
        0.0,
        0.0,
        0.0,
        1.0
      ],
      "name": "Sketchfab_model"
    },
    {
      "children": [
        2
      ],
      "matrix": [
        0.009999999776482582,
        0.0,
        0.0,
        0.0,
        0.0,
        0.0,
        0.009999999776482582,
        0.0,
        0.0,
        -0.009999999776482582,
        0.0,
        0.0,
        0.0,
        0.0,
        0.0,
        1.0
      ],
      "name": "8bb54d22eae74c6db5bd000a4603fba7.fbx"
    },
    {
      "children": [
        3,
        5
      ],
      "name": "RootNode"
    },
    {
      "children": [
        4
      ],
      "matrix": [
        0.11973429859085997,
        3.4187850618048717e-18,
        -0.055833006223523475,
        0.0,
        9.096352197251205e-09,
        -0.1321121752262098,
        1.950719517522166e-08,
        0.0,
        -0.055833006223522726,
        -2.1523807444330756e-08,
        -0.11973429859085839,
        0.0,
        -3.605985403060913,
        0.3805713653564453,
        9.46438217163086,
        1.0
      ],
      "name": "gingerbreadman000"
    },
    {
      "mesh": 0,
      "name": "gingerbreadman000_gingerbreadman_0"
    },
    {
      "children": [
        6
      ],
      "matrix": [
        0.11441250859996477,
        -3.937249630981188e-09,
        0.0660560725358706,
        0.0,
        -1.4171659339838567e-08,
        -0.13211217522620977,
        1.667154041499389e-08,
        0.0,
        0.06605607253586919,
        -2.1523806670673914e-08,
        -0.11441250859996362,
        0.0,
        2.35762619972229,
        0.3805713653564453,
        4.423705101013184,
        1.0
      ],
      "name": "gingerbreadman001"
    },
    {
      "mesh": 1,
      "name": "gingerbreadman001_gingerbreadman_0"
    }
  ],
  "samplers": [
    {
      "magFilter": 9729,
      "minFilter": 9987,
      "wrapS": 10497,
      "wrapT": 10497
    }
  ],
  "scene": 0,
  "scenes": [
    {
      "name": "Sketchfab_Scene",
      "nodes": [
        0
      ]
    }
  ],
  "textures": [
    {
      "sampler": 0,
      "source": 0
    },
    {
      "sampler": 0,
      "source": 1
    }
  ]
}
