{
	"asset":{
		"generator":"Khronos glTF Blender I/O v5.0.21",
		"version":"2.0"
	},
	"extensionsUsed":[
		"KHR_materials_clearcoat",
		"KHR_materials_emissive_strength",
		"KHR_materials_specular",
		"KHR_materials_ior"
	],
	"scene":0,
	"scenes":[
		{
			"name":"Scene",
			"nodes":[
				0,
				1,
				2,
				3,
				4,
				5,
				6,
				7,
				8,
				9,
				10,
				11,
				12,
				13,
				14,
				15,
				16,
				17,
				18,
				19,
				20,
				21,
				22,
				23,
				24,
				25,
				26,
				27,
				28,
				29,
				30,
				31
			]
		}
	],
	"nodes":[
		{
			"mesh":0,
			"name":"Sphere.001",
			"rotation":[
				0,
				0,
				-0.1968793272972107,
				0.9804277420043945
			],
			"scale":[
				0.1491778939962387,
				0.2536599934101105,
				0.14917784929275513
			],
			"translation":[
				0.11424821615219116,
				3.7571640014648438,
				2.016019821166992
			]
		},
		{
			"mesh":1,
			"name":"Sphere.002",
			"rotation":[
				-0.1863487809896469,
				-0.11725280433893204,
				-0.2015029489994049,
				0.9544227123260498
			],
			"scale":[
				0.14917778968811035,
				0.2536599636077881,
				0.14917787909507751
			],
			"translation":[
				0.18737101554870605,
				3.463172197341919,
				0.8120361566543579
			]
		},
		{
			"mesh":2,
			"name":"Sphere.003",
			"rotation":[
				0.12077035754919052,
				-0.04852210357785225,
				-0.2280290424823761,
				0.9649159908294678
			],
			"scale":[
				0.1491778939962387,
				0.25365981459617615,
				0.1491779088973999
			],
			"translation":[
				0.14684951305389404,
				3.4631686210632324,
				-0.5654236078262329
			]
		},
		{
			"mesh":3,
			"name":"Sphere.004",
			"rotation":[
				-0.16793280839920044,
				-0.11335024237632751,
				-0.20372365415096283,
				0.9578345417976379
			],
			"scale":[
				0.1491779386997223,
				0.2536598742008209,
				0.14917786419391632
			],
			"translation":[
				0.16948705911636353,
				3.528679370880127,
				-1.7143574953079224
			]
		},
		{
			"mesh":4,
			"name":"Sphere.005",
			"rotation":[
				-0.16793280839920044,
				-0.11335024237632751,
				-0.20372365415096283,
				0.9578345417976379
			],
			"scale":[
				0.1491779386997223,
				0.2536598742008209,
				0.14917786419391632
			],
			"translation":[
				0.23159164190292358,
				3.4076247215270996,
				-2.7661781311035156
			]
		},
		{
			"mesh":5,
			"name":"Sphere.007",
			"rotation":[
				-0.1863487809896469,
				-0.11725280433893204,
				-0.2015029489994049,
				0.9544227123260498
			],
			"scale":[
				0.14917778968811035,
				0.2536599636077881,
				0.14917787909507751
			],
			"translation":[
				0.202303946018219,
				2.2534990310668945,
				1.5090173482894897
			]
		},
		{
			"mesh":6,
			"name":"Sphere.008",
			"rotation":[
				0.12077035754919052,
				-0.04852210357785225,
				-0.2280290424823761,
				0.9649159908294678
			],
			"scale":[
				0.1491778939962387,
				0.25365981459617615,
				0.1491779088973999
			],
			"translation":[
				0.16178256273269653,
				2.25349760055542,
				0.13155752420425415
			]
		},
		{
			"mesh":7,
			"name":"Sphere.009",
			"rotation":[
				-0.16793280839920044,
				-0.11335024237632751,
				-0.20372365415096283,
				0.9578345417976379
			],
			"scale":[
				0.1491779386997223,
				0.2536598742008209,
				0.14917786419391632
			],
			"translation":[
				0.18442010879516602,
				2.319007635116577,
				-1.01737642288208
			]
		},
		{
			"mesh":8,
			"name":"Sphere.010",
			"rotation":[
				-0.16793280839920044,
				-0.11335024237632751,
				-0.20372365415096283,
				0.9578345417976379
			],
			"scale":[
				0.1491779386997223,
				0.2536598742008209,
				0.14917786419391632
			],
			"translation":[
				0.24652469158172607,
				2.1979520320892334,
				-2.069197416305542
			]
		},
		{
			"mesh":9,
			"name":"Sphere.011",
			"rotation":[
				0,
				0,
				-0.1968793272972107,
				0.9804277420043945
			],
			"scale":[
				0.1491778939962387,
				0.2536599934101105,
				0.14917784929275513
			],
			"translation":[
				0.10403501987457275,
				1.7033780813217163,
				1.9708722829818726
			]
		},
		{
			"mesh":10,
			"name":"Sphere.012",
			"rotation":[
				-0.1863487809896469,
				-0.11725280433893204,
				-0.2015029489994049,
				0.9544227123260498
			],
			"scale":[
				0.14917778968811035,
				0.2536599636077881,
				0.14917787909507751
			],
			"translation":[
				0.17715781927108765,
				1.4093852043151855,
				0.7668875455856323
			]
		},
		{
			"mesh":11,
			"name":"Sphere.013",
			"rotation":[
				0.12077035754919052,
				-0.04852210357785225,
				-0.2280290424823761,
				0.9649159908294678
			],
			"scale":[
				0.1491778939962387,
				0.25365981459617615,
				0.1491779088973999
			],
			"translation":[
				0.13663554191589355,
				1.409382939338684,
				-0.610572099685669
			]
		},
		{
			"mesh":12,
			"name":"Sphere.015",
			"rotation":[
				-0.16793280839920044,
				-0.11335024237632751,
				-0.20372365415096283,
				0.9578345417976379
			],
			"scale":[
				0.1491779386997223,
				0.2536598742008209,
				0.14917786419391632
			],
			"translation":[
				0.22137844562530518,
				1.353838324546814,
				-2.8113269805908203
			]
		},
		{
			"mesh":13,
			"name":"Sphere.017",
			"rotation":[
				-0.1863487809896469,
				-0.11725280433893204,
				-0.2015029489994049,
				0.9544227123260498
			],
			"scale":[
				0.14917778968811035,
				0.2536599636077881,
				0.14917787909507751
			],
			"translation":[
				0.12814879417419434,
				0.43367621302604675,
				1.3596261739730835
			]
		},
		{
			"mesh":14,
			"name":"Sphere.019",
			"rotation":[
				-0.16793280839920044,
				-0.11335024237632751,
				-0.20372365415096283,
				0.9578345417976379
			],
			"scale":[
				0.1491779386997223,
				0.2536598742008209,
				0.14917786419391632
			],
			"translation":[
				0.11026489734649658,
				0.15730060636997223,
				-1.1667674779891968
			]
		},
		{
			"mesh":15,
			"name":"Sphere.020",
			"rotation":[
				-0.16793280839920044,
				-0.11335024237632751,
				-0.20372365415096283,
				0.9578345417976379
			],
			"scale":[
				0.1491779386997223,
				0.2536598742008209,
				0.14917786419391632
			],
			"translation":[
				0.17236870527267456,
				0.19886177778244019,
				-2.2185888290405273
			]
		},
		{
			"mesh":16,
			"name":"Sphere.021",
			"rotation":[
				0.1575794219970703,
				0.03164346143603325,
				-0.1943197250366211,
				0.9676814079284668
			],
			"scale":[
				0.1491779088973999,
				0.2536599636077881,
				0.1491779088973999
			],
			"translation":[
				-0.001416027545928955,
				-0.2665839195251465,
				1.9429036378860474
			]
		},
		{
			"mesh":17,
			"name":"Sphere.022",
			"rotation":[
				-0.1863487809896469,
				-0.11725280433893204,
				-0.2015029489994049,
				0.9544227123260498
			],
			"scale":[
				0.14917778968811035,
				0.2536599636077881,
				0.14917787909507751
			],
			"translation":[
				0.07170677185058594,
				-0.5605766177177429,
				0.7389191389083862
			]
		},
		{
			"mesh":18,
			"name":"Sphere.023",
			"rotation":[
				0.11764107644557953,
				-0.05568169057369232,
				-0.28551948070526123,
				0.949493944644928
			],
			"scale":[
				0.1491778939962387,
				0.25365984439849854,
				0.1491779088973999
			],
			"translation":[
				0.031185269355773926,
				-0.7959737777709961,
				-0.6385403275489807
			]
		},
		{
			"mesh":19,
			"name":"Sphere.024",
			"rotation":[
				-0.16793280839920044,
				-0.11335024237632751,
				-0.20372365415096283,
				0.9578345417976379
			],
			"scale":[
				0.1491779386997223,
				0.2536598742008209,
				0.14917786419391632
			],
			"translation":[
				0.053822875022888184,
				-0.4950674772262573,
				-1.7874743938446045
			]
		},
		{
			"mesh":20,
			"name":"Sphere.025",
			"rotation":[
				-0.2603600025177002,
				-0.13411720097064972,
				-0.18682077527046204,
				0.937722384929657
			],
			"scale":[
				0.14917787909507751,
				0.25365984439849854,
				0.1491779237985611
			],
			"translation":[
				0.11592745780944824,
				-0.3546867370605469,
				-2.8392953872680664
			]
		},
		{
			"mesh":21,
			"name":"Sphere.026",
			"rotation":[
				0,
				0,
				-0.1968793272972107,
				0.9804277420043945
			],
			"scale":[
				0.1491778939962387,
				0.2536599934101105,
				0.14917784929275513
			],
			"translation":[
				0.08329308032989502,
				-1.0561954975128174,
				1.5551432371139526
			]
		},
		{
			"mesh":22,
			"name":"Sphere.027",
			"rotation":[
				-0.1863487809896469,
				-0.11725280433893204,
				-0.2015029489994049,
				0.9544227123260498
			],
			"scale":[
				0.14917778968811035,
				0.2536599636077881,
				0.14917787909507751
			],
			"translation":[
				0.1564158797264099,
				-1.3501887321472168,
				0.3511592149734497
			]
		},
		{
			"mesh":23,
			"name":"Sphere.028",
			"rotation":[
				0.12077035754919052,
				-0.04852210357785225,
				-0.2280290424823761,
				0.9649159908294678
			],
			"scale":[
				0.1491778939962387,
				0.25365981459617615,
				0.1491779088973999
			],
			"translation":[
				0.11589360237121582,
				-1.3501908779144287,
				-1.0263001918792725
			]
		},
		{
			"mesh":24,
			"name":"Sphere.029",
			"rotation":[
				-0.16793280839920044,
				-0.11335024237632751,
				-0.20372365415096283,
				0.9578345417976379
			],
			"scale":[
				0.1491779386997223,
				0.2536598742008209,
				0.14917786419391632
			],
			"translation":[
				0.1385311484336853,
				-1.2846789360046387,
				-2.17523455619812
			]
		},
		{
			"mesh":25,
			"name":"Sphere.030",
			"rotation":[
				-0.16793280839920044,
				-0.11335024237632751,
				-0.20372365415096283,
				0.9578345417976379
			],
			"scale":[
				0.1491779386997223,
				0.2536598742008209,
				0.14917786419391632
			],
			"translation":[
				0.20063579082489014,
				-1.4057356119155884,
				-3.227055549621582
			]
		},
		{
			"mesh":26,
			"name":"Sphere.031",
			"rotation":[
				0.21958449482917786,
				0.04409468173980713,
				-0.19187791645526886,
				0.9555214047431946
			],
			"scale":[
				0.1491779088973999,
				0.25365984439849854,
				0.1491778939962387
			],
			"translation":[
				0.08279812335968018,
				-2.0979270935058594,
				2.185838222503662
			]
		},
		{
			"mesh":27,
			"name":"Sphere.032",
			"rotation":[
				-0.1863487809896469,
				-0.11725280433893204,
				-0.2015029489994049,
				0.9544227123260498
			],
			"scale":[
				0.14917778968811035,
				0.2536599636077881,
				0.14917787909507751
			],
			"translation":[
				0.15592092275619507,
				-2.3919200897216797,
				0.9216482639312744
			]
		},
		{
			"mesh":28,
			"name":"Sphere.033",
			"rotation":[
				0.12077035754919052,
				-0.04852210357785225,
				-0.2280290424823761,
				0.9649159908294678
			],
			"scale":[
				0.1491778939962387,
				0.25365981459617615,
				0.1491779088973999
			],
			"translation":[
				0.11539864540100098,
				-2.391921043395996,
				-0.4558112323284149
			]
		},
		{
			"mesh":29,
			"name":"Sphere.034",
			"rotation":[
				-0.16793280839920044,
				-0.11335024237632751,
				-0.20372365415096283,
				0.9578345417976379
			],
			"scale":[
				0.1491779386997223,
				0.2536598742008209,
				0.14917786419391632
			],
			"translation":[
				0.13803625106811523,
				-2.3264102935791016,
				-1.6047451496124268
			]
		},
		{
			"mesh":30,
			"name":"Sphere.035",
			"rotation":[
				-0.16892080008983612,
				-0.1118726134300232,
				-0.21211907267570496,
				0.9560104608535767
			],
			"scale":[
				0.1491778939962387,
				0.2536599636077881,
				0.14917786419391632
			],
			"translation":[
				0.2001408338546753,
				-2.4474666118621826,
				-2.6565661430358887
			]
		},
		{
			"name":"candy.001",
			"scale":[
				21.537569046020508,
				21.53757095336914,
				21.53757095336914
			],
			"translation":[
				0.006248593330383301,
				0.2499537169933319,
				-0.3323509097099304
			]
		}
	],
	"materials":[
		{
			"doubleSided":true,
			"emissiveFactor":[
				1,
				0.002125826198607683,
				0
			],
			"extensions":{
				"KHR_materials_clearcoat":{
					"clearcoatRoughnessFactor":0
				},
				"KHR_materials_emissive_strength":{
					"emissiveStrength":3.8999998569488525
				},
				"KHR_materials_specular":{
					"specularFactor":0.8636363744735718,
					"specularColorFactor":[
						0.9961360692977905,
						1.0,
						0.9334976077079773
					]
				},
				"KHR_materials_ior":{
					"ior":136.29998779296875
				}
			},
			"name":"light",
			"pbrMetallicRoughness":{
				"baseColorFactor":[
					0.800054669380188,
					0,
					0.0004618749662768096,
					1
				],
				"metallicFactor":0.5590909123420715,
				"roughnessFactor":0
			}
		}
	],
	"meshes":[
		{
			"name":"Sphere.001",
			"primitives":[
				{
					"attributes":{
						"POSITION":0,
						"NORMAL":1,
						"TEXCOORD_0":2
					},
					"indices":3,
					"material":0
				}
			]
		},
		{
			"name":"Sphere.002",
			"primitives":[
				{
					"attributes":{
						"POSITION":4,
						"NORMAL":5,
						"TEXCOORD_0":6
					},
					"indices":3,
					"material":0
				}
			]
		},
		{
			"name":"Sphere.003",
			"primitives":[
				{
					"attributes":{
						"POSITION":7,
						"NORMAL":8,
						"TEXCOORD_0":9
					},
					"indices":3,
					"material":0
				}
			]
		},
		{
			"name":"Sphere.004",
			"primitives":[
				{
					"attributes":{
						"POSITION":10,
						"NORMAL":11,
						"TEXCOORD_0":12
					},
					"indices":3,
					"material":0
				}
			]
		},
		{
			"name":"Sphere.005",
			"primitives":[
				{
					"attributes":{
						"POSITION":13,
						"NORMAL":14,
						"TEXCOORD_0":15
					},
					"indices":3,
					"material":0
				}
			]
		},
		{
			"name":"Sphere.007",
			"primitives":[
				{
					"attributes":{
						"POSITION":16,
						"NORMAL":17,
						"TEXCOORD_0":18
					},
					"indices":3,
					"material":0
				}
			]
		},
		{
			"name":"Sphere.008",
			"primitives":[
				{
					"attributes":{
						"POSITION":19,
						"NORMAL":20,
						"TEXCOORD_0":21
					},
					"indices":3,
					"material":0
				}
			]
		},
		{
			"name":"Sphere.009",
			"primitives":[
				{
					"attributes":{
						"POSITION":22,
						"NORMAL":23,
						"TEXCOORD_0":24
					},
					"indices":3,
					"material":0
				}
			]
		},
		{
			"name":"Sphere.010",
			"primitives":[
				{
					"attributes":{
						"POSITION":25,
						"NORMAL":26,
						"TEXCOORD_0":27
					},
					"indices":3,
					"material":0
				}
			]
		},
		{
			"name":"Sphere.011",
			"primitives":[
				{
					"attributes":{
						"POSITION":28,
						"NORMAL":29,
						"TEXCOORD_0":30
					},
					"indices":3,
					"material":0
				}
			]
		},
		{
			"name":"Sphere.012",
			"primitives":[
				{
					"attributes":{
						"POSITION":31,
						"NORMAL":32,
						"TEXCOORD_0":33
					},
					"indices":3,
					"material":0
				}
			]
		},
		{
			"name":"Sphere.013",
			"primitives":[
				{
					"attributes":{
						"POSITION":34,
						"NORMAL":35,
						"TEXCOORD_0":36
					},
					"indices":3,
					"material":0
				}
			]
		},
		{
			"name":"Sphere.015",
			"primitives":[
				{
					"attributes":{
						"POSITION":37,
						"NORMAL":38,
						"TEXCOORD_0":39
					},
					"indices":3,
					"material":0
				}
			]
		},
		{
			"name":"Sphere.017",
			"primitives":[
				{
					"attributes":{
						"POSITION":40,
						"NORMAL":41,
						"TEXCOORD_0":42
					},
					"indices":3,
					"material":0
				}
			]
		},
		{
			"name":"Sphere.019",
			"primitives":[
				{
					"attributes":{
						"POSITION":43,
						"NORMAL":44,
						"TEXCOORD_0":45
					},
					"indices":3,
					"material":0
				}
			]
		},
		{
			"name":"Sphere.020",
			"primitives":[
				{
					"attributes":{
						"POSITION":46,
						"NORMAL":47,
						"TEXCOORD_0":48
					},
					"indices":3,
					"material":0
				}
			]
		},
		{
			"name":"Sphere.021",
			"primitives":[
				{
					"attributes":{
						"POSITION":49,
						"NORMAL":50,
						"TEXCOORD_0":51
					},
					"indices":3,
					"material":0
				}
			]
		},
		{
			"name":"Sphere.022",
			"primitives":[
				{
					"attributes":{
						"POSITION":52,
						"NORMAL":53,
						"TEXCOORD_0":54
					},
					"indices":3,
					"material":0
				}
			]
		},
		{
			"name":"Sphere.023",
			"primitives":[
				{
					"attributes":{
						"POSITION":55,
						"NORMAL":56,
						"TEXCOORD_0":57
					},
					"indices":3,
					"material":0
				}
			]
		},
		{
			"name":"Sphere.024",
			"primitives":[
				{
					"attributes":{
						"POSITION":58,
						"NORMAL":59,
						"TEXCOORD_0":60
					},
					"indices":3,
					"material":0
				}
			]
		},
		{
			"name":"Sphere.025",
			"primitives":[
				{
					"attributes":{
						"POSITION":61,
						"NORMAL":62,
						"TEXCOORD_0":63
					},
					"indices":3,
					"material":0
				}
			]
		},
		{
			"name":"Sphere.026",
			"primitives":[
				{
					"attributes":{
						"POSITION":64,
						"NORMAL":65,
						"TEXCOORD_0":66
					},
					"indices":3,
					"material":0
				}
			]
		},
		{
			"name":"Sphere.027",
			"primitives":[
				{
					"attributes":{
						"POSITION":67,
						"NORMAL":68,
						"TEXCOORD_0":69
					},
					"indices":3,
					"material":0
				}
			]
		},
		{
			"name":"Sphere.028",
			"primitives":[
				{
					"attributes":{
						"POSITION":70,
						"NORMAL":71,
						"TEXCOORD_0":72
					},
					"indices":3,
					"material":0
				}
			]
		},
		{
			"name":"Sphere.029",
			"primitives":[
				{
					"attributes":{
						"POSITION":73,
						"NORMAL":74,
						"TEXCOORD_0":75
					},
					"indices":3,
					"material":0
				}
			]
		},
		{
			"name":"Sphere.030",
			"primitives":[
				{
					"attributes":{
						"POSITION":76,
						"NORMAL":77,
						"TEXCOORD_0":78
					},
					"indices":3,
					"material":0
				}
			]
		},
		{
			"name":"Sphere.031",
			"primitives":[
				{
					"attributes":{
						"POSITION":79,
						"NORMAL":80,
						"TEXCOORD_0":81
					},
					"indices":3,
					"material":0
				}
			]
		},
		{
			"name":"Sphere.032",
			"primitives":[
				{
					"attributes":{
						"POSITION":82,
						"NORMAL":83,
						"TEXCOORD_0":84
					},
					"indices":3,
					"material":0
				}
			]
		},
		{
			"name":"Sphere.033",
			"primitives":[
				{
					"attributes":{
						"POSITION":85,
						"NORMAL":86,
						"TEXCOORD_0":87
					},
					"indices":3,
					"material":0
				}
			]
		},
		{
			"name":"Sphere.034",
			"primitives":[
				{
					"attributes":{
						"POSITION":88,
						"NORMAL":89,
						"TEXCOORD_0":90
					},
					"indices":3,
					"material":0
				}
			]
		},
		{
			"name":"Sphere.035",
			"primitives":[
				{
					"attributes":{
						"POSITION":91,
						"NORMAL":92,
						"TEXCOORD_0":93
					},
					"indices":3,
					"material":0
				}
			]
		}
	],
	"accessors":[
		{
			"bufferView":0,
			"componentType":5126,
			"count":559,
			"max":[
				0.9999996423721313,
				1,
				0.9999993443489075
			],
			"min":[
				-0.9999991059303284,
				-1,
				-1
			],
			"type":"VEC3"
		},
		{
			"bufferView":1,
			"componentType":5126,
			"count":559,
			"type":"VEC3"
		},
		{
			"bufferView":2,
			"componentType":5126,
			"count":559,
			"type":"VEC2"
		},
		{
			"bufferView":3,
			"componentType":5123,
			"count":2880,
			"type":"SCALAR"
		},
		{
			"bufferView":4,
			"componentType":5126,
			"count":559,
			"max":[
				0.9999996423721313,
				1,
				0.9999993443489075
			],
			"min":[
				-0.9999991059303284,
				-1,
				-1
			],
			"type":"VEC3"
		},
		{
			"bufferView":5,
			"componentType":5126,
			"count":559,
			"type":"VEC3"
		},
		{
			"bufferView":6,
			"componentType":5126,
			"count":559,
			"type":"VEC2"
		},
		{
			"bufferView":7,
			"componentType":5126,
			"count":559,
			"max":[
				0.9999996423721313,
				1,
				0.9999993443489075
			],
			"min":[
				-0.9999991059303284,
				-1,
				-1
			],
			"type":"VEC3"
		},
		{
			"bufferView":8,
			"componentType":5126,
			"count":559,
			"type":"VEC3"
		},
		{
			"bufferView":9,
			"componentType":5126,
			"count":559,
			"type":"VEC2"
		},
		{
			"bufferView":10,
			"componentType":5126,
			"count":559,
			"max":[
				0.9999996423721313,
				1,
				0.9999993443489075
			],
			"min":[
				-0.9999991059303284,
				-1,
				-1
			],
			"type":"VEC3"
		},
		{
			"bufferView":11,
			"componentType":5126,
			"count":559,
			"type":"VEC3"
		},
		{
			"bufferView":12,
			"componentType":5126,
			"count":559,
			"type":"VEC2"
		},
		{
			"bufferView":13,
			"componentType":5126,
			"count":559,
			"max":[
				0.9999996423721313,
				1,
				0.9999993443489075
			],
			"min":[
				-0.9999991059303284,
				-1,
				-1
			],
			"type":"VEC3"
		},
		{
			"bufferView":14,
			"componentType":5126,
			"count":559,
			"type":"VEC3"
		},
		{
			"bufferView":15,
			"componentType":5126,
			"count":559,
			"type":"VEC2"
		},
		{
			"bufferView":16,
			"componentType":5126,
			"count":559,
			"max":[
				0.9999996423721313,
				1,
				0.9999993443489075
			],
			"min":[
				-0.9999991059303284,
				-1,
				-1
			],
			"type":"VEC3"
		},
		{
			"bufferView":17,
			"componentType":5126,
			"count":559,
			"type":"VEC3"
		},
		{
			"bufferView":18,
			"componentType":5126,
			"count":559,
			"type":"VEC2"
		},
		{
			"bufferView":19,
			"componentType":5126,
			"count":559,
			"max":[
				0.9999996423721313,
				1,
				0.9999993443489075
			],
			"min":[
				-0.9999991059303284,
				-1,
				-1
			],
			"type":"VEC3"
		},
		{
			"bufferView":20,
			"componentType":5126,
			"count":559,
			"type":"VEC3"
		},
		{
			"bufferView":21,
			"componentType":5126,
			"count":559,
			"type":"VEC2"
		},
		{
			"bufferView":22,
			"componentType":5126,
			"count":559,
			"max":[
				0.9999996423721313,
				1,
				0.9999993443489075
			],
			"min":[
				-0.9999991059303284,
				-1,
				-1
			],
			"type":"VEC3"
		},
		{
			"bufferView":23,
			"componentType":5126,
			"count":559,
			"type":"VEC3"
		},
		{
			"bufferView":24,
			"componentType":5126,
			"count":559,
			"type":"VEC2"
		},
		{
			"bufferView":25,
			"componentType":5126,
			"count":559,
			"max":[
				0.9999996423721313,
				1,
				0.9999993443489075
			],
			"min":[
				-0.9999991059303284,
				-1,
				-1
			],
			"type":"VEC3"
		},
		{
			"bufferView":26,
			"componentType":5126,
			"count":559,
			"type":"VEC3"
		},
		{
			"bufferView":27,
			"componentType":5126,
			"count":559,
			"type":"VEC2"
		},
		{
			"bufferView":28,
			"componentType":5126,
			"count":559,
			"max":[
				0.9999996423721313,
				1,
				0.9999993443489075
			],
			"min":[
				-0.9999991059303284,
				-1,
				-1
			],
			"type":"VEC3"
		},
		{
			"bufferView":29,
			"componentType":5126,
			"count":559,
			"type":"VEC3"
		},
		{
			"bufferView":30,
			"componentType":5126,
			"count":559,
			"type":"VEC2"
		},
		{
			"bufferView":31,
			"componentType":5126,
			"count":559,
			"max":[
				0.9999996423721313,
				1,
				0.9999993443489075
			],
			"min":[
				-0.9999991059303284,
				-1,
				-1
			],
			"type":"VEC3"
		},
		{
			"bufferView":32,
			"componentType":5126,
			"count":559,
			"type":"VEC3"
		},
		{
			"bufferView":33,
			"componentType":5126,
			"count":559,
			"type":"VEC2"
		},
		{
			"bufferView":34,
			"componentType":5126,
			"count":559,
			"max":[
				0.9999996423721313,
				1,
				0.9999993443489075
			],
			"min":[
				-0.9999991059303284,
				-1,
				-1
			],
			"type":"VEC3"
		},
		{
			"bufferView":35,
			"componentType":5126,
			"count":559,
			"type":"VEC3"
		},
		{
			"bufferView":36,
			"componentType":5126,
			"count":559,
			"type":"VEC2"
		},
		{
			"bufferView":37,
			"componentType":5126,
			"count":559,
			"max":[
				0.9999996423721313,
				1,
				0.9999993443489075
			],
			"min":[
				-0.9999991059303284,
				-1,
				-1
			],
			"type":"VEC3"
		},
		{
			"bufferView":38,
			"componentType":5126,
			"count":559,
			"type":"VEC3"
		},
		{
			"bufferView":39,
			"componentType":5126,
			"count":559,
			"type":"VEC2"
		},
		{
			"bufferView":40,
			"componentType":5126,
			"count":559,
			"max":[
				0.9999996423721313,
				1,
				0.9999993443489075
			],
			"min":[
				-0.9999991059303284,
				-1,
				-1
			],
			"type":"VEC3"
		},
		{
			"bufferView":41,
			"componentType":5126,
			"count":559,
			"type":"VEC3"
		},
		{
			"bufferView":42,
			"componentType":5126,
			"count":559,
			"type":"VEC2"
		},
		{
			"bufferView":43,
			"componentType":5126,
			"count":559,
			"max":[
				0.9999996423721313,
				1,
				0.9999993443489075
			],
			"min":[
				-0.9999991059303284,
				-1,
				-1
			],
			"type":"VEC3"
		},
		{
			"bufferView":44,
			"componentType":5126,
			"count":559,
			"type":"VEC3"
		},
		{
			"bufferView":45,
			"componentType":5126,
			"count":559,
			"type":"VEC2"
		},
		{
			"bufferView":46,
			"componentType":5126,
			"count":559,
			"max":[
				0.9999996423721313,
				1,
				0.9999993443489075
			],
			"min":[
				-0.9999991059303284,
				-1,
				-1
			],
			"type":"VEC3"
		},
		{
			"bufferView":47,
			"componentType":5126,
			"count":559,
			"type":"VEC3"
		},
		{
			"bufferView":48,
			"componentType":5126,
			"count":559,
			"type":"VEC2"
		},
		{
			"bufferView":49,
			"componentType":5126,
			"count":559,
			"max":[
				0.9999996423721313,
				1,
				0.9999993443489075
			],
			"min":[
				-0.9999991059303284,
				-1,
				-1
			],
			"type":"VEC3"
		},
		{
			"bufferView":50,
			"componentType":5126,
			"count":559,
			"type":"VEC3"
		},
		{
			"bufferView":51,
			"componentType":5126,
			"count":559,
			"type":"VEC2"
		},
		{
			"bufferView":52,
			"componentType":5126,
			"count":559,
			"max":[
				0.9999996423721313,
				1,
				0.9999993443489075
			],
			"min":[
				-0.9999991059303284,
				-1,
				-1
			],
			"type":"VEC3"
		},
		{
			"bufferView":53,
			"componentType":5126,
			"count":559,
			"type":"VEC3"
		},
		{
			"bufferView":54,
			"componentType":5126,
			"count":559,
			"type":"VEC2"
		},
		{
			"bufferView":55,
			"componentType":5126,
			"count":559,
			"max":[
				0.9999996423721313,
				1,
				0.9999993443489075
			],
			"min":[
				-0.9999991059303284,
				-1,
				-1
			],
			"type":"VEC3"
		},
		{
			"bufferView":56,
			"componentType":5126,
			"count":559,
			"type":"VEC3"
		},
		{
			"bufferView":57,
			"componentType":5126,
			"count":559,
			"type":"VEC2"
		},
		{
			"bufferView":58,
			"componentType":5126,
			"count":559,
			"max":[
				0.9999996423721313,
				1,
				0.9999993443489075
			],
			"min":[
				-0.9999991059303284,
				-1,
				-1
			],
			"type":"VEC3"
		},
		{
			"bufferView":59,
			"componentType":5126,
			"count":559,
			"type":"VEC3"
		},
		{
			"bufferView":60,
			"componentType":5126,
			"count":559,
			"type":"VEC2"
		},
		{
			"bufferView":61,
			"componentType":5126,
			"count":559,
			"max":[
				0.9999996423721313,
				1,
				0.9999993443489075
			],
			"min":[
				-0.9999991059303284,
				-1,
				-1
			],
			"type":"VEC3"
		},
		{
			"bufferView":62,
			"componentType":5126,
			"count":559,
			"type":"VEC3"
		},
		{
			"bufferView":63,
			"componentType":5126,
			"count":559,
			"type":"VEC2"
		},
		{
			"bufferView":64,
			"componentType":5126,
			"count":559,
			"max":[
				0.9999996423721313,
				1,
				0.9999993443489075
			],
			"min":[
				-0.9999991059303284,
				-1,
				-1
			],
			"type":"VEC3"
		},
		{
			"bufferView":65,
			"componentType":5126,
			"count":559,
			"type":"VEC3"
		},
		{
			"bufferView":66,
			"componentType":5126,
			"count":559,
			"type":"VEC2"
		},
		{
			"bufferView":67,
			"componentType":5126,
			"count":559,
			"max":[
				0.9999996423721313,
				1,
				0.9999993443489075
			],
			"min":[
				-0.9999991059303284,
				-1,
				-1
			],
			"type":"VEC3"
		},
		{
			"bufferView":68,
			"componentType":5126,
			"count":559,
			"type":"VEC3"
		},
		{
			"bufferView":69,
			"componentType":5126,
			"count":559,
			"type":"VEC2"
		},
		{
			"bufferView":70,
			"componentType":5126,
			"count":559,
			"max":[
				0.9999996423721313,
				1,
				0.9999993443489075
			],
			"min":[
				-0.9999991059303284,
				-1,
				-1
			],
			"type":"VEC3"
		},
		{
			"bufferView":71,
			"componentType":5126,
			"count":559,
			"type":"VEC3"
		},
		{
			"bufferView":72,
			"componentType":5126,
			"count":559,
			"type":"VEC2"
		},
		{
			"bufferView":73,
			"componentType":5126,
			"count":559,
			"max":[
				0.9999996423721313,
				1,
				0.9999993443489075
			],
			"min":[
				-0.9999991059303284,
				-1,
				-1
			],
			"type":"VEC3"
		},
		{
			"bufferView":74,
			"componentType":5126,
			"count":559,
			"type":"VEC3"
		},
		{
			"bufferView":75,
			"componentType":5126,
			"count":559,
			"type":"VEC2"
		},
		{
			"bufferView":76,
			"componentType":5126,
			"count":559,
			"max":[
				0.9999996423721313,
				1,
				0.9999993443489075
			],
			"min":[
				-0.9999991059303284,
				-1,
				-1
			],
			"type":"VEC3"
		},
		{
			"bufferView":77,
			"componentType":5126,
			"count":559,
			"type":"VEC3"
		},
		{
			"bufferView":78,
			"componentType":5126,
			"count":559,
			"type":"VEC2"
		},
		{
			"bufferView":79,
			"componentType":5126,
			"count":559,
			"max":[
				0.9999996423721313,
				1,
				0.9999993443489075
			],
			"min":[
				-0.9999991059303284,
				-1,
				-1
			],
			"type":"VEC3"
		},
		{
			"bufferView":80,
			"componentType":5126,
			"count":559,
			"type":"VEC3"
		},
		{
			"bufferView":81,
			"componentType":5126,
			"count":559,
			"type":"VEC2"
		},
		{
			"bufferView":82,
			"componentType":5126,
			"count":559,
			"max":[
				0.9999996423721313,
				1,
				0.9999993443489075
			],
			"min":[
				-0.9999991059303284,
				-1,
				-1
			],
			"type":"VEC3"
		},
		{
			"bufferView":83,
			"componentType":5126,
			"count":559,
			"type":"VEC3"
		},
		{
			"bufferView":84,
			"componentType":5126,
			"count":559,
			"type":"VEC2"
		},
		{
			"bufferView":85,
			"componentType":5126,
			"count":559,
			"max":[
				0.9999996423721313,
				1,
				0.9999993443489075
			],
			"min":[
				-0.9999991059303284,
				-1,
				-1
			],
			"type":"VEC3"
		},
		{
			"bufferView":86,
			"componentType":5126,
			"count":559,
			"type":"VEC3"
		},
		{
			"bufferView":87,
			"componentType":5126,
			"count":559,
			"type":"VEC2"
		},
		{
			"bufferView":88,
			"componentType":5126,
			"count":559,
			"max":[
				0.9999996423721313,
				1,
				0.9999993443489075
			],
			"min":[
				-0.9999991059303284,
				-1,
				-1
			],
			"type":"VEC3"
		},
		{
			"bufferView":89,
			"componentType":5126,
			"count":559,
			"type":"VEC3"
		},
		{
			"bufferView":90,
			"componentType":5126,
			"count":559,
			"type":"VEC2"
		},
		{
			"bufferView":91,
			"componentType":5126,
			"count":559,
			"max":[
				0.9999996423721313,
				1,
				0.9999993443489075
			],
			"min":[
				-0.9999991059303284,
				-1,
				-1
			],
			"type":"VEC3"
		},
		{
			"bufferView":92,
			"componentType":5126,
			"count":559,
			"type":"VEC3"
		},
		{
			"bufferView":93,
			"componentType":5126,
			"count":559,
			"type":"VEC2"
		}
	],
	"bufferViews":[
		{
			"buffer":0,
			"byteLength":6708,
			"byteOffset":0,
			"target":34962
		},
		{
			"buffer":0,
			"byteLength":6708,
			"byteOffset":6708,
			"target":34962
		},
		{
			"buffer":0,
			"byteLength":4472,
			"byteOffset":13416,
			"target":34962
		},
		{
			"buffer":0,
			"byteLength":5760,
			"byteOffset":17888,
			"target":34963
		},
		{
			"buffer":0,
			"byteLength":6708,
			"byteOffset":23648,
			"target":34962
		},
		{
			"buffer":0,
			"byteLength":6708,
			"byteOffset":30356,
			"target":34962
		},
		{
			"buffer":0,
			"byteLength":4472,
			"byteOffset":37064,
			"target":34962
		},
		{
			"buffer":0,
			"byteLength":6708,
			"byteOffset":41536,
			"target":34962
		},
		{
			"buffer":0,
			"byteLength":6708,
			"byteOffset":48244,
			"target":34962
		},
		{
			"buffer":0,
			"byteLength":4472,
			"byteOffset":54952,
			"target":34962
		},
		{
			"buffer":0,
			"byteLength":6708,
			"byteOffset":59424,
			"target":34962
		},
		{
			"buffer":0,
			"byteLength":6708,
			"byteOffset":66132,
			"target":34962
		},
		{
			"buffer":0,
			"byteLength":4472,
			"byteOffset":72840,
			"target":34962
		},
		{
			"buffer":0,
			"byteLength":6708,
			"byteOffset":77312,
			"target":34962
		},
		{
			"buffer":0,
			"byteLength":6708,
			"byteOffset":84020,
			"target":34962
		},
		{
			"buffer":0,
			"byteLength":4472,
			"byteOffset":90728,
			"target":34962
		},
		{
			"buffer":0,
			"byteLength":6708,
			"byteOffset":95200,
			"target":34962
		},
		{
			"buffer":0,
			"byteLength":6708,
			"byteOffset":101908,
			"target":34962
		},
		{
			"buffer":0,
			"byteLength":4472,
			"byteOffset":108616,
			"target":34962
		},
		{
			"buffer":0,
			"byteLength":6708,
			"byteOffset":113088,
			"target":34962
		},
		{
			"buffer":0,
			"byteLength":6708,
			"byteOffset":119796,
			"target":34962
		},
		{
			"buffer":0,
			"byteLength":4472,
			"byteOffset":126504,
			"target":34962
		},
		{
			"buffer":0,
			"byteLength":6708,
			"byteOffset":130976,
			"target":34962
		},
		{
			"buffer":0,
			"byteLength":6708,
			"byteOffset":137684,
			"target":34962
		},
		{
			"buffer":0,
			"byteLength":4472,
			"byteOffset":144392,
			"target":34962
		},
		{
			"buffer":0,
			"byteLength":6708,
			"byteOffset":148864,
			"target":34962
		},
		{
			"buffer":0,
			"byteLength":6708,
			"byteOffset":155572,
			"target":34962
		},
		{
			"buffer":0,
			"byteLength":4472,
			"byteOffset":162280,
			"target":34962
		},
		{
			"buffer":0,
			"byteLength":6708,
			"byteOffset":166752,
			"target":34962
		},
		{
			"buffer":0,
			"byteLength":6708,
			"byteOffset":173460,
			"target":34962
		},
		{
			"buffer":0,
			"byteLength":4472,
			"byteOffset":180168,
			"target":34962
		},
		{
			"buffer":0,
			"byteLength":6708,
			"byteOffset":184640,
			"target":34962
		},
		{
			"buffer":0,
			"byteLength":6708,
			"byteOffset":191348,
			"target":34962
		},
		{
			"buffer":0,
			"byteLength":4472,
			"byteOffset":198056,
			"target":34962
		},
		{
			"buffer":0,
			"byteLength":6708,
			"byteOffset":202528,
			"target":34962
		},
		{
			"buffer":0,
			"byteLength":6708,
			"byteOffset":209236,
			"target":34962
		},
		{
			"buffer":0,
			"byteLength":4472,
			"byteOffset":215944,
			"target":34962
		},
		{
			"buffer":0,
			"byteLength":6708,
			"byteOffset":220416,
			"target":34962
		},
		{
			"buffer":0,
			"byteLength":6708,
			"byteOffset":227124,
			"target":34962
		},
		{
			"buffer":0,
			"byteLength":4472,
			"byteOffset":233832,
			"target":34962
		},
		{
			"buffer":0,
			"byteLength":6708,
			"byteOffset":238304,
			"target":34962
		},
		{
			"buffer":0,
			"byteLength":6708,
			"byteOffset":245012,
			"target":34962
		},
		{
			"buffer":0,
			"byteLength":4472,
			"byteOffset":251720,
			"target":34962
		},
		{
			"buffer":0,
			"byteLength":6708,
			"byteOffset":256192,
			"target":34962
		},
		{
			"buffer":0,
			"byteLength":6708,
			"byteOffset":262900,
			"target":34962
		},
		{
			"buffer":0,
			"byteLength":4472,
			"byteOffset":269608,
			"target":34962
		},
		{
			"buffer":0,
			"byteLength":6708,
			"byteOffset":274080,
			"target":34962
		},
		{
			"buffer":0,
			"byteLength":6708,
			"byteOffset":280788,
			"target":34962
		},
		{
			"buffer":0,
			"byteLength":4472,
			"byteOffset":287496,
			"target":34962
		},
		{
			"buffer":0,
			"byteLength":6708,
			"byteOffset":291968,
			"target":34962
		},
		{
			"buffer":0,
			"byteLength":6708,
			"byteOffset":298676,
			"target":34962
		},
		{
			"buffer":0,
			"byteLength":4472,
			"byteOffset":305384,
			"target":34962
		},
		{
			"buffer":0,
			"byteLength":6708,
			"byteOffset":309856,
			"target":34962
		},
		{
			"buffer":0,
			"byteLength":6708,
			"byteOffset":316564,
			"target":34962
		},
		{
			"buffer":0,
			"byteLength":4472,
			"byteOffset":323272,
			"target":34962
		},
		{
			"buffer":0,
			"byteLength":6708,
			"byteOffset":327744,
			"target":34962
		},
		{
			"buffer":0,
			"byteLength":6708,
			"byteOffset":334452,
			"target":34962
		},
		{
			"buffer":0,
			"byteLength":4472,
			"byteOffset":341160,
			"target":34962
		},
		{
			"buffer":0,
			"byteLength":6708,
			"byteOffset":345632,
			"target":34962
		},
		{
			"buffer":0,
			"byteLength":6708,
			"byteOffset":352340,
			"target":34962
		},
		{
			"buffer":0,
			"byteLength":4472,
			"byteOffset":359048,
			"target":34962
		},
		{
			"buffer":0,
			"byteLength":6708,
			"byteOffset":363520,
			"target":34962
		},
		{
			"buffer":0,
			"byteLength":6708,
			"byteOffset":370228,
			"target":34962
		},
		{
			"buffer":0,
			"byteLength":4472,
			"byteOffset":376936,
			"target":34962
		},
		{
			"buffer":0,
			"byteLength":6708,
			"byteOffset":381408,
			"target":34962
		},
		{
			"buffer":0,
			"byteLength":6708,
			"byteOffset":388116,
			"target":34962
		},
		{
			"buffer":0,
			"byteLength":4472,
			"byteOffset":394824,
			"target":34962
		},
		{
			"buffer":0,
			"byteLength":6708,
			"byteOffset":399296,
			"target":34962
		},
		{
			"buffer":0,
			"byteLength":6708,
			"byteOffset":406004,
			"target":34962
		},
		{
			"buffer":0,
			"byteLength":4472,
			"byteOffset":412712,
			"target":34962
		},
		{
			"buffer":0,
			"byteLength":6708,
			"byteOffset":417184,
			"target":34962
		},
		{
			"buffer":0,
			"byteLength":6708,
			"byteOffset":423892,
			"target":34962
		},
		{
			"buffer":0,
			"byteLength":4472,
			"byteOffset":430600,
			"target":34962
		},
		{
			"buffer":0,
			"byteLength":6708,
			"byteOffset":435072,
			"target":34962
		},
		{
			"buffer":0,
			"byteLength":6708,
			"byteOffset":441780,
			"target":34962
		},
		{
			"buffer":0,
			"byteLength":4472,
			"byteOffset":448488,
			"target":34962
		},
		{
			"buffer":0,
			"byteLength":6708,
			"byteOffset":452960,
			"target":34962
		},
		{
			"buffer":0,
			"byteLength":6708,
			"byteOffset":459668,
			"target":34962
		},
		{
			"buffer":0,
			"byteLength":4472,
			"byteOffset":466376,
			"target":34962
		},
		{
			"buffer":0,
			"byteLength":6708,
			"byteOffset":470848,
			"target":34962
		},
		{
			"buffer":0,
			"byteLength":6708,
			"byteOffset":477556,
			"target":34962
		},
		{
			"buffer":0,
			"byteLength":4472,
			"byteOffset":484264,
			"target":34962
		},
		{
			"buffer":0,
			"byteLength":6708,
			"byteOffset":488736,
			"target":34962
		},
		{
			"buffer":0,
			"byteLength":6708,
			"byteOffset":495444,
			"target":34962
		},
		{
			"buffer":0,
			"byteLength":4472,
			"byteOffset":502152,
			"target":34962
		},
		{
			"buffer":0,
			"byteLength":6708,
			"byteOffset":506624,
			"target":34962
		},
		{
			"buffer":0,
			"byteLength":6708,
			"byteOffset":513332,
			"target":34962
		},
		{
			"buffer":0,
			"byteLength":4472,
			"byteOffset":520040,
			"target":34962
		},
		{
			"buffer":0,
			"byteLength":6708,
			"byteOffset":524512,
			"target":34962
		},
		{
			"buffer":0,
			"byteLength":6708,
			"byteOffset":531220,
			"target":34962
		},
		{
			"buffer":0,
			"byteLength":4472,
			"byteOffset":537928,
			"target":34962
		},
		{
			"buffer":0,
			"byteLength":6708,
			"byteOffset":542400,
			"target":34962
		},
		{
			"buffer":0,
			"byteLength":6708,
			"byteOffset":549108,
			"target":34962
		},
		{
			"buffer":0,
			"byteLength":4472,
			"byteOffset":555816,
			"target":34962
		}
	],
	"buffers":[
		{
			"byteLength":560288,
			"uri":"XMAS_light.bin"
		}
	]
}
